<?xml version="1.0" encoding="iso-8859-1"?>
<!-- Generator: Adobe Illustrator 19.0.0, SVG Export Plug-In . SVG Version: 6.00 Build 0)  -->
<svg version="1.1" id="Capa_1" xmlns="http://www.w3.org/2000/svg" xmlns:xlink="http://www.w3.org/1999/xlink" x="0px" y="0px"
	 viewBox="0 0 511.999 511.999" style="enable-background:new 0 0 511.999 511.999;" xml:space="preserve">
<path style="fill:#5D5360;" d="M255.999,175.839c-13.226,0-24.048,10.822-24.048,24.048v32.065h48.097v-32.065
	C280.047,186.66,269.225,175.839,255.999,175.839z"/>
<circle style="fill:#4B3F4E;" cx="255.997" cy="255.998" r="40.08"/>
<path style="fill:#5D5360;" d="M255.999,272.031c39.845,0,72.144,21.994,72.144,61.839s-32.301,82.451-72.144,82.451
	s-72.144-42.607-72.144-82.451S216.154,272.031,255.999,272.031z"/>
<path style="fill:#4B3F4E;" d="M223.934,331.579c0-26.535,9.635-46.535,24.81-59.296c-36.437,2.523-64.889,24.191-64.889,61.586
	c0,39.844,32.3,82.451,72.144,82.451c0.949,0,1.871-0.138,2.812-0.186C237.934,396.954,223.934,363.586,223.934,331.579z"/>
<path d="M511.42,389.387l-38.01-91.223c-1.959-4.705-5.463-8.709-9.865-11.276l-86.117-50.235
	c-5.135-2.996-11.161-3.935-16.962-2.646l-57.779,12.84c-0.142-0.726-0.302-1.445-0.477-2.159l107.255-84.272
	c3.335-2.62,5.903-6.097,7.425-10.056l38.495-100.086c1.487-3.866-0.441-8.206-4.308-9.692c-3.868-1.488-8.206,0.441-9.692,4.308
	l-38.495,100.086c-0.552,1.436-1.483,2.696-2.692,3.646l-104.109,81.8c-0.539-0.842-1.1-1.668-1.689-2.473l53.596-84.225
	c2.407-3.782,3.679-8.151,3.679-12.635V7.815c0-4.107-3.164-7.688-7.269-7.811c-4.247-0.128-7.731,3.278-7.731,7.497V131.09
	c0,1.626-0.461,3.21-1.334,4.581l-51.874,81.515c-0.25-0.178-0.496-0.361-0.75-0.534c3.135-4.992,4.829-10.787,4.829-16.766v-40.081
	c0-6.126-1.659-10.99-3.888-14.666c-2.931-4.834-10.079-4.49-12.671,0.534c-0.033,0.064-0.066,0.128-0.099,0.192
	c-1.172,2.27-1.212,5.005,0.066,7.218c0.852,1.476,1.592,3.643,1.592,6.722v13.235c-4.814-2.979-10.483-4.703-16.548-4.703
	s-11.734,1.725-16.548,4.703v-13.235c0-3.079,0.74-5.246,1.592-6.722c1.277-2.212,1.238-4.948,0.066-7.218
	c-0.033-0.064-0.066-0.127-0.099-0.192c-2.591-5.024-9.739-5.368-12.671-0.534c-2.229,3.676-3.888,8.539-3.888,14.666v40.081
	c0,5.982,1.715,11.783,4.836,16.761c-0.256,0.174-0.504,0.359-0.757,0.539l-51.874-81.516c-0.873-1.371-1.333-2.955-1.333-4.581
	V7.815c0-4.107-3.164-7.688-7.269-7.811c-4.247-0.128-7.731,3.278-7.731,7.497V131.09c0,4.484,1.272,8.853,3.679,12.634
	l53.599,84.225c-0.59,0.805-1.15,1.631-1.689,2.473l-104.11-81.8c-1.209-0.95-2.14-2.21-2.692-3.646L70.613,44.889
	c-1.487-3.865-5.826-5.795-9.692-4.308c-3.866,1.487-5.794,5.826-4.308,9.692L95.108,150.36c1.522,3.959,4.09,7.437,7.425,10.056
	l107.255,84.272c-0.175,0.714-0.335,1.433-0.477,2.159l-57.779-12.84c-5.803-1.29-11.827-0.351-16.962,2.645l-86.117,50.236
	c-4.402,2.567-7.906,6.571-9.865,11.275l-38.01,91.224c-1.593,3.823,0.215,8.215,4.038,9.808c0.943,0.394,1.92,0.579,2.882,0.579
	c2.937,0,5.726-1.737,6.926-4.617l38.01-91.225c0.71-1.705,1.98-3.156,3.576-4.087l86.118-50.236
	c1.861-1.086,4.045-1.427,6.15-0.959l60.534,13.452c0.18,1.394,0.443,2.773,0.745,4.144l-36.703,12.234
	c-6.906,2.302-12.272,7.555-14.72,14.41L121.828,394.55c-1.119,3.133-1.557,6.402-1.302,9.719l7.754,100.804
	c0.303,3.935,3.589,6.925,7.47,6.925c0.193,0,0.388-0.007,0.583-0.022c4.13-0.317,7.22-3.923,6.903-8.053l-7.754-100.805
	c-0.093-1.201,0.066-2.387,0.472-3.522l36.307-101.659c0.888-2.486,2.833-4.39,5.337-5.225l17.381-5.794
	c-12.208,12.157-18.624,28.244-18.624,46.953c0,21.345,8.337,43.569,22.875,60.975c15.605,18.686,35.767,28.977,56.771,28.977
	s41.165-10.291,56.771-28.977c14.537-17.405,22.875-39.63,22.875-60.975c0-18.778-6.539-34.915-18.546-46.927l17.303,5.768
	c2.504,0.835,4.449,2.738,5.337,5.225l36.307,101.66c0.406,1.135,0.564,2.32,0.472,3.522l-7.754,100.804
	c-0.317,4.13,2.773,7.735,6.903,8.053c0.196,0.016,0.39,0.022,0.583,0.022c3.88,0,7.167-2.99,7.47-6.925l7.754-100.803
	c0.255-3.317-0.183-6.587-1.302-9.72L353.865,292.89c-2.448-6.855-7.813-12.108-14.72-14.41l-36.699-12.233
	c0.301-1.369,0.556-2.749,0.736-4.143l60.54-13.453c2.104-0.467,4.288-0.127,6.15,0.959l86.118,50.236
	c1.596,0.931,2.865,2.382,3.576,4.088l38.01,91.224c1.201,2.881,3.989,4.617,6.926,4.617c0.961,0,1.939-0.187,2.882-0.579
	C511.205,397.602,513.013,393.211,511.42,389.387z M239.45,199.887c0-9.125,7.423-16.548,16.548-16.548
	c9.125,0,16.548,7.423,16.548,16.548c0,3.774-1.295,7.401-3.638,10.327c-4.109-1.16-8.435-1.795-12.91-1.795
	c-4.472,0-8.796,0.634-12.902,1.792C240.767,207.297,239.45,203.665,239.45,199.887z M320.643,333.87
	c0,34.66-28.238,74.95-64.644,74.95s-64.644-40.291-64.644-74.95c0-16.554,6.337-30.39,18.325-40.013
	c11.51-9.238,27.96-14.326,46.32-14.326c4.142,0,7.5-3.357,7.5-7.5s-3.358-7.5-7.5-7.5c-10.587,0-20.698,1.493-29.93,4.324
	c-1.733-4.039-2.651-8.419-2.651-12.856c0-17.965,14.616-32.581,32.581-32.581S288.58,238.035,288.58,256
	c0,5.068-1.177,10.05-3.418,14.541c-1.843,0.777-3.376,2.278-4.126,4.302c-1.438,3.885,0.544,8.199,4.429,9.638
	C308.149,292.88,320.643,310.42,320.643,333.87z"/>
<g>
</g>
<g>
</g>
<g>
</g>
<g>
</g>
<g>
</g>
<g>
</g>
<g>
</g>
<g>
</g>
<g>
</g>
<g>
</g>
<g>
</g>
<g>
</g>
<g>
</g>
<g>
</g>
<g>
</g>
</svg>
